<svg class="looka-1j8o68f" xmlns="http://www.w3.org/2000/svg" xmlns:svg="http://www.w3.org/2000/svg" xmlns:rdf="http://www.w3.org/1999/02/22-rdf-syntax-ns#" xmlns:cc="http://creativecommons.org/ns#" xmlns:dc="http://purl.org/dc/elements/1.1/" viewBox="0 0 350 63.47">   <defs id="SvgjsDefs1903"></defs>   <g id="SvgjsG1904" featurekey="nameFeature-0" transform="matrix(2.08847273693398,0,0,2.08847273693398,-6.688544783807709,-20.88597020437307)" fill="#ffffff">     <path d="M21.035 17.754 l-10.391 0 l0 4.6875 l8.9063 0 l0 6.4063 l-8.9063 0 l0 11.152 l-7.4414 0 l0 -28.711 l17.832 0 l0 6.4648 z M41.97690625 34.7656 c0 1.875 0.23438 3.7891 0.46875 4.6289 l0 0.60547 l-6.5039 0 l-0.42969 -2.1289 c-1.4648 1.7969 -4.2578 2.5195 -6.6211 2.5195 c-3.1641 0 -6.5234 -1.3086 -6.5234 -5.7422 c0 -4.375 3.2813 -5.7617 7.4414 -6.8164 l3.3203 -0.83984 c1.6016 -0.39063 2.0898 -0.83984 2.0898 -1.6016 c0 -1.4258 -1.6406 -1.7188 -2.8516 -1.7188 c-1.875 0 -3.1836 0.68359 -3.5547 2.8125 l-6.2695 -1.0352 c0.99609 -4.5313 4.1992 -6.5234 10.273 -6.5234 c4.1602 0 9.1602 0.91797 9.1602 7.6367 l0 8.2031 z M31.17580625 35.7227 c1.875 0 4.4336 -1.5234 4.4336 -4.7266 l-4.668 1.5625 c-0.91797 0.3125 -1.8164 0.68359 -1.8164 1.6016 c0 0.99609 0.9375 1.5625 2.0508 1.5625 z M53.464406249999996 40.39063 c-4.7852 0 -8.5938 -1.7188 -9.3945 -5.7422 l5.8789 -1.6406 c0.72266 2.0313 2.0508 2.5586 3.5547 2.5586 c1.0547 0 2.207 -0.25391 2.207 -1.3672 c0 -1.9531 -3.5938 -1.9531 -6.8359 -3.2422 c-2.2461 -0.87891 -4.3164 -2.3242 -4.3164 -5.6445 c0 -4.3555 3.6328 -6.3867 8.5938 -6.3867 c4.1602 0 7.6758 1.4258 8.5547 5.5078 l-5.3906 1.1719 c-0.72266 -1.6016 -1.7188 -2.0898 -3.1641 -2.0898 c-1.2891 0 -2.168 0.37109 -2.168 1.1328 c0 1.2305 2.3633 1.4258 4.9219 2.1484 c3.1641 0.87891 6.6406 2.4414 6.6406 6.9141 c0 4.9609 -4.3164 6.6797 -9.082 6.6797 z M73.11721875 40 c-4.3945 0 -6.7969 -2.5195 -6.7969 -6.9531 l0 -8.3203 l-3.9648 0 l0 -5.4102 l1.1719 0 c2.1875 0 3.6719 -0.80078 3.6719 -4.3945 l0 -2.1289 l6.3672 0 l0 6.5234 l3.9453 0 l0 5.4102 l-3.9453 0 l0 7.5195 c0 1.7578 0.70313 2.4414 2.1094 2.4414 l1.8359 0 l0 5.3125 l-4.3945 0 z M94.15584375 40.39063 c-8.6719 0 -14.902 -5.8398 -14.902 -14.746 c0 -8.9258 6.2305 -14.766 14.902 -14.766 c6.8555 0 12.207 3.5938 14.121 9.4336 l-6.9531 2.4414 c-0.95703 -3.2031 -3.7109 -5.1172 -7.168 -5.1172 c-4.3164 0 -7.5195 3.0859 -7.5195 8.0078 s3.2031 7.9883 7.5195 7.9883 c3.457 0 6.2109 -1.9141 7.168 -5.1172 l6.9531 2.4414 c-1.9141 5.8398 -7.2656 9.4336 -14.121 9.4336 z M124.7659375 18.926 c4.9609 0 7.6367 2.6367 7.6367 7.9492 l0 13.125 l-7.1484 0 l0 -11.992 c0 -2.6953 -1.4453 -3.457 -3.2813 -3.457 c-1.8164 0 -4.1602 0.68359 -4.1992 4.6484 l0 10.801 l-7.1289 0 l0 -30 l7.1289 0 l0 11.699 c1.5625 -1.7188 3.9648 -2.7734 6.9922 -2.7734 z M154.2620625 34.7656 c0 1.875 0.23438 3.7891 0.46875 4.6289 l0 0.60547 l-6.5039 0 l-0.42969 -2.1289 c-1.4648 1.7969 -4.2578 2.5195 -6.6211 2.5195 c-3.1641 0 -6.5234 -1.3086 -6.5234 -5.7422 c0 -4.375 3.2813 -5.7617 7.4414 -6.8164 l3.3203 -0.83984 c1.6016 -0.39063 2.0898 -0.83984 2.0898 -1.6016 c0 -1.4258 -1.6406 -1.7188 -2.8516 -1.7188 c-1.875 0 -3.1836 0.68359 -3.5547 2.8125 l-6.2695 -1.0352 c0.99609 -4.5313 4.1992 -6.5234 10.273 -6.5234 c4.1602 0 9.1602 0.91797 9.1602 7.6367 l0 8.2031 z M143.4609625 35.7227 c1.875 0 4.4336 -1.5234 4.4336 -4.7266 l-4.668 1.5625 c-0.91797 0.3125 -1.8164 0.68359 -1.8164 1.6016 c0 0.99609 0.9375 1.5625 2.0508 1.5625 z M166.3945625 40 c-4.3945 0 -6.7969 -2.5195 -6.7969 -6.9531 l0 -8.3203 l-3.9648 0 l0 -5.4102 l1.1719 0 c2.1875 0 3.6719 -0.80078 3.6719 -4.3945 l0 -2.1289 l6.3672 0 l0 6.5234 l3.9453 0 l0 5.4102 l-3.9453 0 l0 7.5195 c0 1.7578 0.70313 2.4414 2.1094 2.4414 l1.8359 0 l0 5.3125 l-4.3945 0 z"></path>   </g> </svg>