<?xml version="1.0" encoding="utf-8"?> 
<svg width="396" height="127.23307034901856" viewBox="0 0 350.00000000000006 112.45347126807198" class="looka-1j8o68f"    xmlns="http://www.w3.org/2000/svg"
   xmlns:svg="http://www.w3.org/2000/svg"
   xmlns:rdf="http://www.w3.org/1999/02/22-rdf-syntax-ns#"
   xmlns:cc="http://creativecommons.org/ns#"
   xmlns:dc="http://purl.org/dc/elements/1.1/">
  <defs id="SvgjsDefs1903"></defs>
  <g id="SvgjsG1904" featurekey="nameFeature-0" transform="matrix(2.08847273693398,0,0,2.08847273693398,-6.688544783807709,-20.88597020437307)" fill="#111111">
    <path d="M21.035 17.754 l-10.391 0 l0 4.6875 l8.9063 0 l0 6.4063 l-8.9063 0 l0 11.152 l-7.4414 0 l0 -28.711 l17.832 0 l0 6.4648 z M41.97690625 34.7656 c0 1.875 0.23438 3.7891 0.46875 4.6289 l0 0.60547 l-6.5039 0 l-0.42969 -2.1289 c-1.4648 1.7969 -4.2578 2.5195 -6.6211 2.5195 c-3.1641 0 -6.5234 -1.3086 -6.5234 -5.7422 c0 -4.375 3.2813 -5.7617 7.4414 -6.8164 l3.3203 -0.83984 c1.6016 -0.39063 2.0898 -0.83984 2.0898 -1.6016 c0 -1.4258 -1.6406 -1.7188 -2.8516 -1.7188 c-1.875 0 -3.1836 0.68359 -3.5547 2.8125 l-6.2695 -1.0352 c0.99609 -4.5313 4.1992 -6.5234 10.273 -6.5234 c4.1602 0 9.1602 0.91797 9.1602 7.6367 l0 8.2031 z M31.17580625 35.7227 c1.875 0 4.4336 -1.5234 4.4336 -4.7266 l-4.668 1.5625 c-0.91797 0.3125 -1.8164 0.68359 -1.8164 1.6016 c0 0.99609 0.9375 1.5625 2.0508 1.5625 z M53.464406249999996 40.39063 c-4.7852 0 -8.5938 -1.7188 -9.3945 -5.7422 l5.8789 -1.6406 c0.72266 2.0313 2.0508 2.5586 3.5547 2.5586 c1.0547 0 2.207 -0.25391 2.207 -1.3672 c0 -1.9531 -3.5938 -1.9531 -6.8359 -3.2422 c-2.2461 -0.87891 -4.3164 -2.3242 -4.3164 -5.6445 c0 -4.3555 3.6328 -6.3867 8.5938 -6.3867 c4.1602 0 7.6758 1.4258 8.5547 5.5078 l-5.3906 1.1719 c-0.72266 -1.6016 -1.7188 -2.0898 -3.1641 -2.0898 c-1.2891 0 -2.168 0.37109 -2.168 1.1328 c0 1.2305 2.3633 1.4258 4.9219 2.1484 c3.1641 0.87891 6.6406 2.4414 6.6406 6.9141 c0 4.9609 -4.3164 6.6797 -9.082 6.6797 z M73.11721875 40 c-4.3945 0 -6.7969 -2.5195 -6.7969 -6.9531 l0 -8.3203 l-3.9648 0 l0 -5.4102 l1.1719 0 c2.1875 0 3.6719 -0.80078 3.6719 -4.3945 l0 -2.1289 l6.3672 0 l0 6.5234 l3.9453 0 l0 5.4102 l-3.9453 0 l0 7.5195 c0 1.7578 0.70313 2.4414 2.1094 2.4414 l1.8359 0 l0 5.3125 l-4.3945 0 z M94.15584375 40.39063 c-8.6719 0 -14.902 -5.8398 -14.902 -14.746 c0 -8.9258 6.2305 -14.766 14.902 -14.766 c6.8555 0 12.207 3.5938 14.121 9.4336 l-6.9531 2.4414 c-0.95703 -3.2031 -3.7109 -5.1172 -7.168 -5.1172 c-4.3164 0 -7.5195 3.0859 -7.5195 8.0078 s3.2031 7.9883 7.5195 7.9883 c3.457 0 6.2109 -1.9141 7.168 -5.1172 l6.9531 2.4414 c-1.9141 5.8398 -7.2656 9.4336 -14.121 9.4336 z M124.7659375 18.926 c4.9609 0 7.6367 2.6367 7.6367 7.9492 l0 13.125 l-7.1484 0 l0 -11.992 c0 -2.6953 -1.4453 -3.457 -3.2813 -3.457 c-1.8164 0 -4.1602 0.68359 -4.1992 4.6484 l0 10.801 l-7.1289 0 l0 -30 l7.1289 0 l0 11.699 c1.5625 -1.7188 3.9648 -2.7734 6.9922 -2.7734 z M154.2620625 34.7656 c0 1.875 0.23438 3.7891 0.46875 4.6289 l0 0.60547 l-6.5039 0 l-0.42969 -2.1289 c-1.4648 1.7969 -4.2578 2.5195 -6.6211 2.5195 c-3.1641 0 -6.5234 -1.3086 -6.5234 -5.7422 c0 -4.375 3.2813 -5.7617 7.4414 -6.8164 l3.3203 -0.83984 c1.6016 -0.39063 2.0898 -0.83984 2.0898 -1.6016 c0 -1.4258 -1.6406 -1.7188 -2.8516 -1.7188 c-1.875 0 -3.1836 0.68359 -3.5547 2.8125 l-6.2695 -1.0352 c0.99609 -4.5313 4.1992 -6.5234 10.273 -6.5234 c4.1602 0 9.1602 0.91797 9.1602 7.6367 l0 8.2031 z M143.4609625 35.7227 c1.875 0 4.4336 -1.5234 4.4336 -4.7266 l-4.668 1.5625 c-0.91797 0.3125 -1.8164 0.68359 -1.8164 1.6016 c0 0.99609 0.9375 1.5625 2.0508 1.5625 z M166.3945625 40 c-4.3945 0 -6.7969 -2.5195 -6.7969 -6.9531 l0 -8.3203 l-3.9648 0 l0 -5.4102 l1.1719 0 c2.1875 0 3.6719 -0.80078 3.6719 -4.3945 l0 -2.1289 l6.3672 0 l0 6.5234 l3.9453 0 l0 5.4102 l-3.9453 0 l0 7.5195 c0 1.7578 0.70313 2.4414 2.1094 2.4414 l1.8359 0 l0 5.3125 l-4.3945 0 z"></path>
  </g>
  <g id="SvgjsG1905" featurekey="sloganFeature-0" transform="matrix(1.4828310329081196,0,0,1.4828310329081196,-1.1876035906495912,75.5858448354594)" fill="#5a5d9d">
    <path d="M10.508 14.9219 l-0.029297 0.56641 l-7.4707 0 c0.087891 1.9531 1.3477 2.8906 2.8418 2.8906 c1.0938 0 1.9824 -0.55664 2.4316 -1.543 l2.0508 0.35156 c-0.68359 1.8945 -2.3828 2.998 -4.4629 2.998 c-3.0176 0 -5.0684 -1.875 -5.0684 -5.0977 s2.0996 -5.1074 5 -5.1074 c2.7051 0 4.6973 1.582 4.707 4.9414 z M5.8105 11.6504 c-1.377 0 -2.3926 0.66406 -2.7051 2.1582 l5.1465 0 c-0.17578 -1.4551 -1.1426 -2.1582 -2.4414 -2.1582 z M11.0634771875 20 l3.9063 -4.9219 l-3.9063 -4.9023 l2.793 0 l2.4805 3.4277 l2.4902 -3.4277 l2.7734 0 l-3.9258 4.9121 l3.9258 4.9121 l-2.7832 0 l-2.4707 -3.3984 l-2.4902 3.3984 l-2.793 0 z M28.416003125 9.99 c2.5488 0 4.6484 1.9336 4.6484 5.1074 c0 3.1934 -2.0996 5.127 -4.6484 5.127 c-1.4063 0 -2.6367 -0.6543 -3.2324 -1.7188 l0 6.3574 l-2.2461 0 l0 -14.688 l2.1484 0 l0.058594 1.6016 c0.58594 -1.123 1.8359 -1.7871 3.2715 -1.7871 z M27.927703125 18.3203 c1.5918 0 2.8906 -1.2109 2.8906 -3.2227 c0 -2.002 -1.2988 -3.2031 -2.8906 -3.2031 c-1.6406 0 -2.9199 1.3281 -2.9199 3.2031 c0 1.8945 1.2793 3.2227 2.9199 3.2227 z M43.913273437499996 14.9219 l-0.029297 0.56641 l-7.4707 0 c0.087891 1.9531 1.3477 2.8906 2.8418 2.8906 c1.0938 0 1.9824 -0.55664 2.4316 -1.543 l2.0508 0.35156 c-0.68359 1.8945 -2.3828 2.998 -4.4629 2.998 c-3.0176 0 -5.0684 -1.875 -5.0684 -5.0977 s2.0996 -5.1074 5 -5.1074 c2.7051 0 4.6973 1.582 4.707 4.9414 z M39.2157734375 11.6504 c-1.377 0 -2.3926 0.66406 -2.7051 2.1582 l5.1465 0 c-0.17578 -1.4551 -1.1426 -2.1582 -2.4414 -2.1582 z M48.003940625 11.8262 c0.47852 -0.97656 1.7383 -1.748 3.1641 -1.7578 l0 2.0508 c-2.002 0 -3.0762 0.73242 -3.0762 2.8711 l0 5.0098 l-2.2559 0 l0 -9.8242 l2.168 0 l0 1.6504 z M53.6669515625 8.301 c-0.76172 0 -1.3867 -0.625 -1.3867 -1.377 c0 -0.76172 0.625 -1.377 1.3867 -1.377 c0.74219 0 1.377 0.61523 1.377 1.377 c0 0.75195 -0.63477 1.377 -1.377 1.377 z M52.5146515625 20 l0 -9.8242 l2.2559 0 l0 9.8242 l-2.2559 0 z M66.400578125 14.9219 l-0.029297 0.56641 l-7.4707 0 c0.087891 1.9531 1.3477 2.8906 2.8418 2.8906 c1.0938 0 1.9824 -0.55664 2.4316 -1.543 l2.0508 0.35156 c-0.68359 1.8945 -2.3828 2.998 -4.4629 2.998 c-3.0176 0 -5.0684 -1.875 -5.0684 -5.0977 s2.0996 -5.1074 5 -5.1074 c2.7051 0 4.6973 1.582 4.707 4.9414 z M61.703078125 11.6504 c-1.377 0 -2.3926 0.66406 -2.7051 2.1582 l5.1465 0 c-0.17578 -1.4551 -1.1426 -2.1582 -2.4414 -2.1582 z M73.5478453125 9.99 c2.1973 0 3.5352 1.2109 3.5352 3.3984 l0 6.6113 l-2.2656 0 l0 -6.123 c0 -1.4844 -0.89844 -2.0508 -1.9336 -2.0508 c-1.2402 0 -2.3047 0.70313 -2.3145 2.5293 l0 5.6445 l-2.2461 0 l0 -9.8242 l2.2461 0 l0 1.1621 c0.6543 -0.84961 1.6992 -1.3477 2.9785 -1.3477 z M83.859365625 20.17578 c-2.9492 0 -5.0879 -2.0313 -5.0879 -5.0977 c0 -3.0566 2.1387 -5.0879 5.0879 -5.0879 c2.334 0 4.1211 1.2402 4.6582 3.4277 l-2.0898 0.27344 c-0.38086 -1.25 -1.3477 -1.8945 -2.5879 -1.8945 c-1.6406 0 -2.8223 1.2988 -2.8223 3.2813 s1.1816 3.2813 2.8223 3.2813 c1.2402 0 2.207 -0.63477 2.5879 -1.8848 l2.0898 0.26367 c-0.53711 2.1875 -2.3633 3.4375 -4.6582 3.4375 z M99.2199140625 14.9219 l-0.029297 0.56641 l-7.4707 0 c0.087891 1.9531 1.3477 2.8906 2.8418 2.8906 c1.0938 0 1.9824 -0.55664 2.4316 -1.543 l2.0508 0.35156 c-0.68359 1.8945 -2.3828 2.998 -4.4629 2.998 c-3.0176 0 -5.0684 -1.875 -5.0684 -5.0977 s2.0996 -5.1074 5 -5.1074 c2.7051 0 4.6973 1.582 4.707 4.9414 z M94.5224140625 11.6504 c-1.377 0 -2.3926 0.66406 -2.7051 2.1582 l5.1465 0 c-0.17578 -1.4551 -1.1426 -2.1582 -2.4414 -2.1582 z M109.1493671875 20.18555 c-2.1387 0 -3.7695 -0.9082 -4.1016 -2.7246 l1.9043 -0.53711 c0.26367 1.1133 1.0938 1.6504 2.1973 1.6504 c0.81055 0 1.6895 -0.29297 1.6699 -1.2402 c-0.019531 -1.1133 -1.4453 -1.25 -3.0176 -1.7773 c-1.2695 -0.41016 -2.5 -0.98633 -2.5 -2.6953 c0 -1.9727 1.6309 -2.8613 3.6621 -2.8613 c1.8555 0 3.3984 0.75195 3.7402 2.5781 l-1.7773 0.41992 c-0.26367 -1.0352 -1.0449 -1.4453 -1.9531 -1.4453 c-0.81055 0 -1.6016 0.3125 -1.6016 1.123 c0 0.9375 1.1523 1.1328 2.4023 1.4648 c1.5332 0.40039 3.2129 0.98633 3.2129 3.0664 c0 2.1777 -1.8164 2.9785 -3.8379 2.9785 z M116.01363125 8.301 c-0.76172 0 -1.3867 -0.625 -1.3867 -1.377 c0 -0.76172 0.625 -1.377 1.3867 -1.377 c0.74219 0 1.377 0.61523 1.377 1.377 c0 0.75195 -0.63477 1.377 -1.377 1.377 z M114.86133125 20 l0 -9.8242 l2.2559 0 l0 9.8242 l-2.2559 0 z M130.6802578125 9.99 c1.9727 0 3.3105 1.0938 3.3105 3.125 l0 6.8848 l-2.2559 0 l0 -6.2598 c0 -1.3281 -0.80078 -1.9141 -1.7188 -1.9141 c-1.0742 0 -1.9531 0.66406 -1.9531 2.373 l0 5.8008 l-2.2852 0 l0 -6.2109 c0 -1.3574 -0.79102 -1.9629 -1.748 -1.9629 c-1.0547 0 -1.9629 0.66406 -1.9629 2.4707 l0 5.7031 l-2.2363 0 l0 -9.8242 l2.2363 0 l0 1.2109 c0.61523 -0.88867 1.582 -1.3965 2.7734 -1.3965 c1.3379 0 2.3828 0.53711 2.8906 1.5332 c0.64453 -1.0156 1.6797 -1.5332 2.9492 -1.5332 z M142.0078 9.99 c2.5488 0 4.6484 1.9336 4.6484 5.1074 c0 3.1934 -2.0996 5.127 -4.6484 5.127 c-1.4063 0 -2.6367 -0.6543 -3.2324 -1.7188 l0 6.3574 l-2.2461 0 l0 -14.688 l2.1484 0 l0.058594 1.6016 c0.58594 -1.123 1.8359 -1.7871 3.2715 -1.7871 z M141.5195 18.3203 c1.5918 0 2.8906 -1.2109 2.8906 -3.2227 c0 -2.002 -1.2988 -3.2031 -2.8906 -3.2031 c-1.6406 0 -2.9199 1.3281 -2.9199 3.2031 c0 1.8945 1.2793 3.2227 2.9199 3.2227 z M148.5888703125 20 l0 -15 l2.2656 0 l0 15 l-2.2656 0 z M154.7206625 8.301 c-0.76172 0 -1.3867 -0.625 -1.3867 -1.377 c0 -0.76172 0.625 -1.377 1.3867 -1.377 c0.74219 0 1.377 0.61523 1.377 1.377 c0 0.75195 -0.63477 1.377 -1.377 1.377 z M153.5683625 20 l0 -9.8242 l2.2559 0 l0 9.8242 l-2.2559 0 z M162.7958890625 20.17578 c-2.9492 0 -5.0879 -2.0313 -5.0879 -5.0977 c0 -3.0566 2.1387 -5.0879 5.0879 -5.0879 c2.334 0 4.1211 1.2402 4.6582 3.4277 l-2.0898 0.27344 c-0.38086 -1.25 -1.3477 -1.8945 -2.5879 -1.8945 c-1.6406 0 -2.8223 1.2988 -2.8223 3.2813 s1.1816 3.2813 2.8223 3.2813 c1.2402 0 2.207 -0.63477 2.5879 -1.8848 l2.0898 0.26367 c-0.53711 2.1875 -2.3633 3.4375 -4.6582 3.4375 z M170.3925375 8.301 c-0.76172 0 -1.3867 -0.625 -1.3867 -1.377 c0 -0.76172 0.625 -1.377 1.3867 -1.377 c0.74219 0 1.377 0.61523 1.377 1.377 c0 0.75195 -0.63477 1.377 -1.377 1.377 z M169.2402375 20 l0 -9.8242 l2.2559 0 l0 9.8242 l-2.2559 0 z M177.6083640625 20 c-1.7578 0 -2.8125 -1.0352 -2.8125 -2.8711 l0 -5.1953 l-1.9629 0 l0 -1.7578 l0.67383 0 c1.0352 0 1.5137 -0.41016 1.5137 -1.6895 l0 -1.5234 l2.0508 0 l0 3.2129 l2.1387 0 l0 1.7578 l-2.1387 0 l0 4.9609 c0 0.91797 0.49805 1.3672 1.25 1.3672 l0.88867 0 l0 1.7383 l-1.6016 0 z M187.294890625 10.1758 l2.334 0 l-5.8789 14.443 l-2.2949 0 l2.1094 -4.9414 l-3.9355 -9.502 l2.4707 0 l2.5488 7.0313 z"></path>
  </g>
</svg>